<svg width="36" height="35" viewBox="0 0 36 35" fill="none" xmlns="http://www.w3.org/2000/svg">
<path d="M23.768 27.3749H8.38135V30.1249H23.768V27.3749Z" stroke="white" stroke-width="1.5" stroke-miterlimit="10" stroke-linecap="round" stroke-linejoin="round"/>
<path d="M14.8863 27L9.88248 19.375" stroke="white" stroke-width="1.5" stroke-miterlimit="10" stroke-linecap="round" stroke-linejoin="round"/>
<path d="M8.88173 18.9999C9.77987 18.9999 10.5079 18.2724 10.5079 17.3749C10.5079 16.4775 9.77987 15.7499 8.88173 15.7499C7.98358 15.7499 7.25549 16.4775 7.25549 17.3749C7.25549 18.2724 7.98358 18.9999 8.88173 18.9999Z" stroke="white" stroke-width="1.5" stroke-miterlimit="10" stroke-linecap="round" stroke-linejoin="round"/>
<path d="M16.0121 8.625L10.3828 15.75" stroke="white" stroke-width="1.5" stroke-miterlimit="10" stroke-linecap="round" stroke-linejoin="round"/>
<path d="M24.8938 11.25C25.7695 12.125 25.7695 13.375 24.8938 14.25C24.0182 15.125 22.7672 15.125 21.8916 14.25" stroke="white" stroke-width="1.5" stroke-miterlimit="10" stroke-linecap="round" stroke-linejoin="round"/>
<path d="M18.514 16.875C16.1372 14.25 16.2623 10.25 18.8893 7.87499C21.5163 5.49999 25.5193 5.62499 27.8961 8.24999L18.514 16.875Z" stroke="white" stroke-width="1.5" stroke-miterlimit="10" stroke-linecap="round" stroke-linejoin="round"/>
<path d="M17.0129 9.37497L15.7619 7.87497C15.1365 7.12497 15.1364 5.99997 15.887 5.24997C16.6376 4.62497 17.7634 4.62497 18.514 5.37497L19.765 6.87497" stroke="white" stroke-width="1.5" stroke-miterlimit="10" stroke-linecap="round" stroke-linejoin="round"/>
</svg>
